<svg xmlns="http://www.w3.org/2000/svg" id="b" data-name="Layer 2" viewBox="0 0 525.131 93.3008"><g id="c" data-name="Layer 1"><polygon points="134.3 89.8893 106.7081 89.8893 54.7687 0 82.3606 0 134.3 89.8893" fill="#00aeef"></polygon><polygon points="52.1341 23.7932 38.386 0 38.2903 0 24.5422 23.7932 0 66.2672 27.5919 66.2672 38.3381 47.6693 62.7335 89.8893 90.3254 89.8893 52.1341 23.7932" fill="#00599c"></polygon><path d="M168.2482,0h21.3431v22.5293h19.5191V0h21.3434v63.8473h-21.3434v-22.894h-19.5191v22.894h-21.3431V0Z" fill="#fff"></path><path d="M237.7525,0h54.4523v17.5124h-33.4742v6.4763h31.1937v15.4142h-31.1937v6.9321h33.9301v17.5124h-54.9082V0Z" fill="#fff"></path><path d="M298.4082,0h21.3434v45.605h30.0084v18.2424h-51.3519V0Z" fill="#fff"></path><path d="M354.5965,0h21.3428v63.8473h-21.3428V0Z" fill="#fff"></path><path d="M399.7456,18.06h-18.7894V0h58.9216v18.06h-18.7894v45.7873h-21.3428V18.06Z" fill="#fff"></path><path d="M444.7143,0h54.453v17.5124h-33.4742v6.4763h31.1937v15.4142h-31.1937v6.9321h33.9301v17.5124h-54.9088V0Z" fill="#fff"></path><polygon points="94.5344 0 103.6041 16.4522 104.5331 18.06 123.2795 18.06 123.2795 50.5036 130.9898 63.8473 144.623 63.8473 144.623 18.06 163.4121 18.06 163.4121 0 94.5344 0" fill="#fff"></polygon><g><path d="M142.4899,88.6094l1.9053-2.2764c1.2344.9707,2.5752,1.4824,4.0039,1.4824.9351,0,1.4287-.3174,1.4287-.8467v-.0352c0-.5293-.4058-.7939-2.0991-1.2002-2.6279-.5996-4.6567-1.3398-4.6567-3.8623v-.0352c0-2.2939,1.8169-3.9512,4.7803-3.9512,2.0991,0,3.7397.5645,5.0801,1.6396l-1.7109,2.417c-1.1289-.8115-2.3638-1.2168-3.4575-1.2168-.8286,0-1.2344.335-1.2344.793v.0352c0,.5645.4233.8115,2.1519,1.2002,2.8223.6172,4.5864,1.5342,4.5864,3.8447v.0352c0,2.5225-1.9937,4.0225-4.9922,4.0225-2.187,0-4.251-.6885-5.7856-2.0459Z" fill="#00aeef"></path><path d="M154.8224,77.5664h3.3516v4.6396c.6172-.7939,1.4995-1.5176,2.8574-1.5176,2.0288,0,3.2456,1.3408,3.2456,3.5107v6.2441h-3.3335v-5.168c0-1.0586-.5469-1.623-1.3584-1.623s-1.4111.5645-1.4111,1.623v5.168h-3.3516v-12.877Z" fill="#00aeef"></path><path d="M165.6384,87.709v-.0352c0-1.9932,1.4995-2.998,3.7397-2.998.8818,0,1.7461.1582,2.293.3701v-.1592c0-1.0049-.6172-1.5693-1.9053-1.5693-1.0054,0-1.7812.2119-2.6455.5293l-.688-2.3467c1.0757-.4404,2.2222-.7402,3.8628-.7402,1.7109,0,2.875.4053,3.6338,1.1641.7231.7051,1.0229,1.6934,1.0229,3.0342v5.4854h-3.2983v-1.0059c-.6704.7236-1.5698,1.2178-2.8223,1.2178-1.8169,0-3.1929-1.0586-3.1929-2.9463ZM171.7062,86.9864v-.4414c-.3525-.1406-.8291-.2471-1.3228-.2471-.9702,0-1.5347.459-1.5347,1.1826v.0352c0,.6523.4937,1.04,1.1816,1.04.9878,0,1.6758-.6172,1.6758-1.5693Z" fill="#00aeef"></path><path d="M176.7541,80.9004h3.3516v1.2705c.6528-.7939,1.4639-1.4824,2.8931-1.4824,2.2754,0,4.2334,1.8877,4.2334,4.9395v.0352c0,3.1045-1.958,4.9922-4.2158,4.9922-1.4468,0-2.2935-.6533-2.9106-1.376v3.9863h-3.3516v-12.3652ZM183.9509,85.6807v-.0352c0-1.2705-.8818-2.1699-1.9575-2.1699-1.0938,0-1.958.8994-1.958,2.1699v.0352c0,1.2705.8643,2.1699,1.958,2.1699,1.0757,0,1.9575-.8818,1.9575-2.1699Z" fill="#00aeef"></path><path d="M188.7873,77.5664h3.4751v2.4697h-3.4751v-2.4697ZM188.8581,80.9004h3.334v9.543h-3.334v-9.543Z" fill="#00aeef"></path><path d="M194.1686,80.9004h3.3516v1.3408c.6177-.7939,1.4995-1.5527,2.8574-1.5527,2.0288,0,3.2456,1.3408,3.2456,3.5107v6.2441h-3.3335v-5.168c0-1.0586-.5469-1.623-1.3584-1.623s-1.4111.5645-1.4111,1.623v5.168h-3.3516v-9.543Z" fill="#00aeef"></path><path d="M205.3727,92.2071l1.0757-2.2227c1.0234.5645,2.0464.9004,3.334.9004,1.6582,0,2.4873-.8291,2.4873-2.3467v-.3701c-.6704.7764-1.5522,1.4287-2.9282,1.4287-2.3462,0-4.251-1.6934-4.251-4.4277v-.0352c0-2.752,1.9404-4.4453,4.1274-4.4453,1.4463,0,2.293.583,2.9985,1.3408v-1.1289h3.3516v7.25c0,1.7461-.3882,2.9805-1.2349,3.8096-.8643.8818-2.2046,1.3408-4.1978,1.3408-1.8345,0-3.3867-.3877-4.7627-1.0938ZM212.2873,85.169v-.0352c0-1.0586-.8291-1.8516-1.958-1.8516-1.1465,0-1.958.793-1.958,1.8691v.0352c0,1.0586.8115,1.835,1.958,1.835s1.958-.7939,1.958-1.8525Z" fill="#00aeef"></path><path d="M223.0334,87.4805v-3.8984h-1.1289v-2.6816h1.1289v-2.416h3.334v2.416h2.2227v2.6816h-2.2227v3.2451c0,.6709.2998.9531.917.9531.4414,0,.8643-.124,1.2705-.3184v2.6113c-.5996.335-1.3936.5645-2.3281.5645-2.0107,0-3.1934-.8818-3.1934-3.1572Z" fill="#00aeef"></path><path d="M230.1271,77.5664h3.3516v4.6396c.6172-.7939,1.499-1.5176,2.8574-1.5176,2.0283,0,3.2461,1.3408,3.2461,3.5107v6.2441h-3.334v-5.168c0-1.0586-.5469-1.623-1.3584-1.623s-1.4111.5645-1.4111,1.623v5.168h-3.3516v-12.877Z" fill="#00aeef"></path><path d="M241.0314,85.7159v-.0352c0-2.7871,1.9932-4.9922,4.8154-4.9922,3.2812,0,4.7979,2.417,4.7979,5.2217,0,.2119,0,.459-.0176.6875h-6.3857c.2646,1.041,1.0234,1.5703,2.0645,1.5703.8105,0,1.4287-.2998,2.1162-.9707l1.8525,1.5352c-.918,1.1641-2.2402,1.9404-4.1279,1.9404-2.999,0-5.1152-2.0107-5.1152-4.957ZM247.5226,84.8868c-.124-1.0576-.7588-1.7285-1.6758-1.7285-.8818,0-1.4814.6709-1.6582,1.7285h3.334Z" fill="#00aeef"></path><path d="M257.3508,78.0957h9.8779v2.999h-6.4561v2.0986h5.8389v2.8398h-5.8389v4.4102h-3.4219v-12.3477Z" fill="#00aeef"></path><path d="M268.6252,87.127v-6.2266h3.3516v5.168c0,1.041.5469,1.6055,1.3584,1.6055.8105,0,1.4111-.5645,1.4111-1.6055v-5.168h3.333v9.543h-3.333v-1.3232c-.6182.7939-1.5,1.5352-2.8584,1.5352-2.0283,0-3.2627-1.3584-3.2627-3.5283Z" fill="#00aeef"></path><path d="M280.5695,87.4805v-3.8984h-1.1289v-2.6816h1.1289v-2.416h3.334v2.416h2.2227v2.6816h-2.2227v3.2451c0,.6709.2998.9531.917.9531.4414,0,.8643-.124,1.2705-.3184v2.6113c-.5996.335-1.3936.5645-2.3281.5645-2.0117,0-3.1934-.8818-3.1934-3.1572Z" fill="#00aeef"></path><path d="M287.593,87.127v-6.2266h3.3516v5.168c0,1.041.5469,1.6055,1.3584,1.6055s1.4111-.5645,1.4111-1.6055v-5.168h3.333v9.543h-3.333v-1.3232c-.6182.7939-1.5,1.5352-2.8574,1.5352-2.0293,0-3.2637-1.3584-3.2637-3.5283Z" fill="#00aeef"></path><path d="M298.9377,80.9004h3.3516v1.9229c.5469-1.3057,1.4287-2.1523,3.0166-2.0811v3.5273h-.2822c-1.7461,0-2.7344,1.0059-2.7344,3.1924v2.9814h-3.3516v-9.543Z" fill="#00aeef"></path><path d="M306.0305,85.7159v-.0352c0-2.7871,1.9932-4.9922,4.8154-4.9922,3.2812,0,4.7979,2.417,4.7979,5.2217,0,.2119,0,.459-.0176.6875h-6.3857c.2646,1.041,1.0234,1.5703,2.0645,1.5703.8105,0,1.4287-.2998,2.1162-.9707l1.8525,1.5352c-.918,1.1641-2.2402,1.9404-4.1279,1.9404-2.999,0-5.1152-2.0107-5.1152-4.957ZM312.5217,84.8868c-.124-1.0576-.7588-1.7285-1.6758-1.7285-.8818,0-1.4814.6709-1.6582,1.7285h3.334Z" fill="#00aeef"></path><path d="M321.7863,85.7159v-.0352c0-2.7158,2.2227-4.9922,5.2744-4.9922s5.2559,2.2402,5.2559,4.957v.0352c0,2.7168-2.2227,4.9922-5.292,4.9922-3.0332,0-5.2383-2.2402-5.2383-4.957ZM329.0715,85.7159v-.0352c0-1.1816-.8643-2.1699-2.0469-2.1699-1.2168,0-1.9932.9707-1.9932,2.1348v.0352c0,1.1641.8467,2.1523,2.0293,2.1523,1.2168,0,2.0107-.9707,2.0107-2.1172Z" fill="#00aeef"></path><path d="M334.3312,83.5821h-1.1113v-2.6465h1.1113v-.1934c0-1.0938.2471-1.9053.8115-2.4697.582-.582,1.3584-.8291,2.5049-.8291,1.0059,0,1.6582.1055,2.1699.2646v2.3633c-.3887-.123-.7588-.1934-1.2529-.1934-.6172,0-.9521.2822-.9521.8994v.2295h2.2051v2.5752h-2.1348v6.8613h-3.3516v-6.8613Z" fill="#00aeef"></path><path d="M345.7111,84.3047v-.0352c0-3.5986,2.752-6.4209,6.4912-6.4209,2.5225,0,4.1455,1.0586,5.2393,2.5576l-2.5752,1.9941c-.7061-.8652-1.5176-1.4473-2.6992-1.4473-1.7285,0-2.9453,1.4824-2.9453,3.2812v.0352c0,1.8525,1.2168,3.2988,2.9453,3.2988,1.2881,0,2.0469-.5996,2.7871-1.5l2.5752,1.835c-1.1641,1.6055-2.7334,2.7871-5.4502,2.7871-3.5273,0-6.3682-2.6992-6.3682-6.3857Z" fill="#00aeef"></path><path d="M358.3625,85.7159v-.0352c0-2.7158,2.2227-4.9922,5.2744-4.9922s5.2559,2.2402,5.2559,4.957v.0352c0,2.7168-2.2227,4.9922-5.292,4.9922-3.0332,0-5.2383-2.2402-5.2383-4.957ZM365.6476,85.7159v-.0352c0-1.1816-.8643-2.1699-2.0469-2.1699-1.2168,0-1.9932.9707-1.9932,2.1348v.0352c0,1.1641.8467,2.1523,2.0293,2.1523,1.2168,0,2.0107-.9707,2.0107-2.1172Z" fill="#00aeef"></path><path d="M370.4836,77.5664h3.333v12.877h-3.333v-12.877Z" fill="#00aeef"></path><path d="M375.882,77.5664h3.334v12.877h-3.334v-12.877Z" fill="#00aeef"></path><path d="M380.8234,85.7159v-.0352c0-2.7871,1.9932-4.9922,4.8154-4.9922,3.2812,0,4.7979,2.417,4.7979,5.2217,0,.2119,0,.459-.0176.6875h-6.3857c.2646,1.041,1.0234,1.5703,2.0645,1.5703.8105,0,1.4287-.2998,2.1162-.9707l1.8525,1.5352c-.918,1.1641-2.2402,1.9404-4.1279,1.9404-2.999,0-5.1152-2.0107-5.1152-4.957ZM387.3146,84.8868c-.124-1.0576-.7588-1.7285-1.6758-1.7285-.8818,0-1.4814.6709-1.6582,1.7285h3.334Z" fill="#00aeef"></path><path d="M391.9035,92.2071l1.0762-2.2227c1.0225.5645,2.0459.9004,3.334.9004,1.6572,0,2.4863-.8291,2.4863-2.3467v-.3701c-.6699.7764-1.5518,1.4287-2.9277,1.4287-2.3457,0-4.251-1.6934-4.251-4.4277v-.0352c0-2.752,1.9404-4.4453,4.1279-4.4453,1.4463,0,2.293.583,2.998,1.3408v-1.1289h3.3516v7.25c0,1.7461-.3877,2.9805-1.2344,3.8096-.8643.8818-2.2051,1.3408-4.1982,1.3408-1.835,0-3.3867-.3877-4.7627-1.0938ZM398.8176,85.169v-.0352c0-1.0586-.8281-1.8516-1.957-1.8516-1.1475,0-1.958.793-1.958,1.8691v.0352c0,1.0586.8105,1.835,1.958,1.835,1.1465,0,1.957-.7939,1.957-1.8525Z" fill="#00aeef"></path><path d="M403.6183,85.7159v-.0352c0-2.7871,1.9932-4.9922,4.8154-4.9922,3.2812,0,4.7979,2.417,4.7979,5.2217,0,.2119,0,.459-.0176.6875h-6.3857c.2646,1.041,1.0234,1.5703,2.0645,1.5703.8105,0,1.4287-.2998,2.1162-.9707l1.8525,1.5352c-.918,1.1641-2.2402,1.9404-4.1279,1.9404-2.999,0-5.1152-2.0107-5.1152-4.957ZM410.1096,84.8868c-.124-1.0576-.7588-1.7285-1.6758-1.7285-.8818,0-1.4814.6709-1.6582,1.7285h3.334Z" fill="#00aeef"></path><path d="M424.2072,78.0079h3.2988l5.2559,12.4355h-3.6689l-.8818-2.2227h-4.7803l-.8818,2.2227h-3.5811l5.2393-12.4355ZM427.2062,85.5577l-1.376-3.4932-1.3936,3.4932h2.7695Z" fill="#00aeef"></path><path d="M433.7541,87.4805v-3.8984h-1.1289v-2.6816h1.1289v-2.416h3.334v2.416h2.2227v2.6816h-2.2227v3.2451c0,.6709.2998.9531.917.9531.4414,0,.8643-.124,1.2705-.3184v2.6113c-.5996.335-1.3936.5645-2.3281.5645-2.0107,0-3.1934-.8818-3.1934-3.1572Z" fill="#00aeef"></path><path d="M440.8469,77.5664h3.3516v4.6396c.6172-.7939,1.499-1.5176,2.8574-1.5176,2.0283,0,3.2461,1.3408,3.2461,3.5107v6.2441h-3.334v-5.168c0-1.0586-.5469-1.623-1.3584-1.623s-1.4111.5645-1.4111,1.623v5.168h-3.3516v-12.877Z" fill="#00aeef"></path><path d="M452.2101,77.5664h3.333v12.877h-3.333v-12.877Z" fill="#00aeef"></path><path d="M457.1506,85.7159v-.0352c0-2.7871,1.9932-4.9922,4.8154-4.9922,3.2812,0,4.7979,2.417,4.7979,5.2217,0,.2119,0,.459-.0176.6875h-6.3857c.2646,1.041,1.0234,1.5703,2.0645,1.5703.8105,0,1.4287-.2998,2.1162-.9707l1.8525,1.5352c-.918,1.1641-2.2402,1.9404-4.1279,1.9404-2.999,0-5.1152-2.0107-5.1152-4.957ZM463.6418,84.8868c-.124-1.0576-.7588-1.7285-1.6758-1.7285-.8818,0-1.4814.6709-1.6582,1.7285h3.334Z" fill="#00aeef"></path><path d="M468.9006,87.4805v-3.8984h-1.1289v-2.6816h1.1289v-2.416h3.334v2.416h2.2227v2.6816h-2.2227v3.2451c0,.6709.2998.9531.917.9531.4414,0,.8643-.124,1.2705-.3184v2.6113c-.5996.335-1.3936.5645-2.3281.5645-2.0107,0-3.1934-.8818-3.1934-3.1572Z" fill="#00aeef"></path><path d="M476.0109,77.5664h3.4756v2.4697h-3.4756v-2.4697ZM476.0812,80.9004h3.334v9.543h-3.334v-9.543Z" fill="#00aeef"></path><path d="M481.0226,85.7159v-.0352c0-2.6982,2.0811-4.9736,5.0977-4.9736,1.958,0,3.2637.8457,4.0742,2.1162l-2.2578,1.6934c-.4756-.6172-.9873-1.0059-1.7812-1.0059-1.0938,0-1.8877.9707-1.8877,2.1348v.0352c0,1.2354.7764,2.1699,1.9053,2.1699.8115,0,1.3232-.3701,1.835-.9883l2.2402,1.623c-.8828,1.3057-2.1523,2.1875-4.2334,2.1875-2.8936,0-4.9922-2.2578-4.9922-4.957Z" fill="#00aeef"></path><path d="M490.8146,89.2266l1.252-2.0107c1.0938.7227,2.2754,1.0928,3.2637,1.0928.582,0,.8643-.1758.8643-.5107v-.0361c0-.3877-.5469-.5459-1.5527-.8281-1.8867-.4941-3.3867-1.1289-3.3867-3.0342v-.0352c0-2.0283,1.623-3.1572,3.8281-3.1572,1.3936,0,2.8398.4053,3.9336,1.1104l-1.1465,2.1172c-.9883-.5645-2.0645-.8994-2.8223-.8994-.5117,0-.7764.1934-.7764.4756v.0361c0,.3701.5645.5469,1.5518.8467,1.8877.5283,3.3867,1.1816,3.3867,3.0332v.0352c0,2.0996-1.5693,3.1934-3.8975,3.1934-1.6055,0-3.1934-.4766-4.498-1.4287Z" fill="#00aeef"></path></g><path d="M508.6555,3.2754h-2.7061V1.045h8v2.2305h-2.7363v6.9287h-2.5576V3.2754ZM515.4064,1.045h2.6768l2.2002,3.5391,2.1709-3.5391h2.6768v9.1592h-2.498v-5.3828l-2.3193,3.6582h-.1191l-2.3203-3.6582v5.3828h-2.4678V1.045Z" fill="#fff"></path></g></svg>